<svg version="1.1" xmlns="http://www.w3.org/2000/svg" viewBox="0 0 260.00006103515625 299.20001220703125" width="260.00006103515625" height="299.20001220703125" filter="invert(93%) hue-rotate(180deg)">
  <!-- svg-source:excalidraw -->
  
  <defs>
    <style>
      @font-face {
        font-family: "Virgil";
        src: url("https://unpkg.com/@zsviczian/excalidraw@0.11.0-obsidian-20/dist/excalidraw-assets/Virgil.woff2");
      }
      @font-face {
        font-family: "Cascadia";
        src: url("https://unpkg.com/@zsviczian/excalidraw@0.11.0-obsidian-20/dist/excalidraw-assets/Cascadia.woff2");
      }
    </style>
  </defs>
  <rect x="0" y="0" width="260.00006103515625" height="299.20001220703125" fill="#ffffff"/><g transform="translate(110.800048828125 13.199996948242188) rotate(0 -3.20001220703125 41.599998474121094)" stroke="none"><path fill="#000000" d="M 2.64,0 Q 2.64,0 2.67,0.91 2.71,1.83 2.78,2.95 2.85,4.06 2.92,5.79 2.99,7.51 3.03,8.92 3.07,10.33 3.05,11.51 3.04,12.68 2.34,15.06 1.64,17.44 1.42,18.90 1.21,20.36 0.74,22.64 0.26,24.92 -0.45,28.00 -1.17,31.08 -1.74,33.51 -2.31,35.93 -2.53,37.81 -2.75,39.68 -3.13,41.92 -3.51,44.16 -3.58,45.74 -3.66,47.33 -3.56,48.85 -3.47,50.38 -3.69,51.98 -3.90,53.57 -3.82,55.34 -3.74,57.11 -3.91,59.54 -4.09,61.98 -3.90,63.56 -3.72,65.14 -3.39,66.46 -3.07,67.78 -2.87,69.21 -2.68,70.63 -2.56,71.69 -2.44,72.76 -2.31,73.97 -2.18,75.19 -2.07,76.49 -1.96,77.79 -1.89,80.33 -1.82,82.88 -1.89,83.36 -1.97,83.83 -2.20,84.26 -2.42,84.68 -2.77,85.02 -3.12,85.35 -3.56,85.55 -4.00,85.75 -4.48,85.80 -4.96,85.86 -5.43,85.75 -5.90,85.65 -6.31,85.40 -6.72,85.15 -7.04,84.78 -7.35,84.42 -7.53,83.97 -7.70,83.52 -7.73,83.04 -7.76,82.56 -7.63,82.10 -7.50,81.63 -7.23,81.23 -6.96,80.83 -6.57,80.54 -6.19,80.25 -5.73,80.10 -5.28,79.94 -4.79,79.94 -4.31,79.94 -3.86,80.10 -3.40,80.25 -3.02,80.54 -2.63,80.83 -2.36,81.23 -2.09,81.63 -1.96,82.10 -1.83,82.56 -1.86,83.04 -1.89,83.52 -2.06,83.97 -2.24,84.42 -2.56,84.79 -2.87,85.15 -3.28,85.40 -3.69,85.65 -4.16,85.75 -4.63,85.86 -5.11,85.80 -5.59,85.75 -6.03,85.55 -6.47,85.35 -6.82,85.02 -7.17,84.68 -7.39,84.26 -7.62,83.83 -7.70,83.36 -7.77,82.88 -7.77,82.88 -7.77,82.88 -7.76,81.14 -7.74,79.40 -7.66,78.19 -7.57,76.99 -7.47,75.65 -7.38,74.32 -7.35,72.72 -7.33,71.13 -7.41,69.96 -7.49,68.79 -7.82,67.26 -8.14,65.73 -8.42,63.85 -8.69,61.98 -8.81,58.59 -8.93,55.20 -8.76,54.08 -8.59,52.95 -8.12,51.56 -7.65,50.17 -7.39,48.61 -7.14,47.04 -6.94,45.37 -6.74,43.69 -6.49,41.51 -6.23,39.32 -6.04,37.28 -5.85,35.24 -5.46,32.78 -5.07,30.32 -4.60,27.32 -4.14,24.32 -3.98,22.03 -3.83,19.74 -3.65,18.03 -3.48,16.32 -3.26,14.49 -3.04,12.65 -3.05,11.49 -3.07,10.33 -3.03,8.92 -2.99,7.51 -2.92,5.79 -2.85,4.06 -2.78,2.95 -2.71,1.83 -2.67,0.91 -2.64,0 -2.60,-0.31 -2.56,-0.63 -2.45,-0.92 -2.33,-1.22 -2.15,-1.48 -1.97,-1.75 -1.73,-1.96 -1.49,-2.17 -1.21,-2.32 -0.93,-2.46 -0.62,-2.54 -0.31,-2.62 0.00,-2.62 0.31,-2.62 0.62,-2.54 0.93,-2.46 1.21,-2.32 1.49,-2.17 1.73,-1.96 1.97,-1.75 2.15,-1.48 2.33,-1.22 2.45,-0.92 2.56,-0.63 2.60,-0.31 2.64,0.00 2.64,0.00 L 2.64,0 Z"/></g><g transform="translate(66 12.399993896484375) rotate(0 54.399993896484375 -0.7999954223632812)" stroke="none"><path fill="#000000" d="M 0,-2.38 Q 0,-2.38 1.84,-2.32 3.68,-2.25 5.38,-2.23 7.08,-2.20 8.57,-2.41 10.06,-2.62 11.52,-2.76 12.98,-2.90 14.07,-3.00 15.15,-3.10 16.31,-3.16 17.48,-3.22 19.06,-3.32 20.65,-3.43 22.30,-3.38 23.96,-3.33 25.12,-3.35 26.28,-3.38 27.54,-3.46 28.80,-3.55 30.01,-3.61 31.22,-3.68 32.51,-3.76 33.79,-3.83 35.00,-3.86 36.22,-3.88 37.27,-3.52 38.33,-3.16 39.85,-3.16 41.38,-3.15 43.70,-3.08 46.02,-3.02 47.92,-2.67 49.82,-2.31 51.37,-2.16 52.91,-2.00 54.49,-1.91 56.06,-1.82 57.43,-1.80 58.79,-1.78 60.17,-1.86 61.56,-1.93 62.69,-2.00 63.82,-2.06 65.33,-2.11 66.85,-2.16 68.32,-2.20 69.80,-2.23 71.58,-2.56 73.36,-2.89 75.13,-3.33 76.90,-3.77 78.79,-4.16 80.68,-4.56 82.63,-4.80 84.58,-5.05 86.26,-5.11 87.95,-5.17 89.09,-5.22 90.24,-5.27 91.67,-5.25 93.10,-5.24 94.39,-5.23 95.68,-5.23 97.25,-5.29 98.82,-5.34 100.29,-5.42 101.76,-5.49 102.98,-5.54 104.20,-5.60 106.37,-5.63 108.54,-5.65 109.06,-5.57 109.58,-5.48 110.05,-5.23 110.51,-4.99 110.88,-4.61 111.24,-4.22 111.46,-3.74 111.68,-3.27 111.74,-2.74 111.80,-2.22 111.68,-1.70 111.57,-1.19 111.30,-0.74 111.03,-0.29 110.62,0.04 110.22,0.39 109.73,0.58 109.24,0.78 108.72,0.80 108.19,0.83 107.68,0.69 107.18,0.55 106.74,0.25 106.30,-0.03 105.98,-0.45 105.67,-0.87 105.50,-1.37 105.33,-1.87 105.33,-2.40 105.33,-2.92 105.50,-3.42 105.67,-3.92 105.99,-4.34 106.30,-4.76 106.74,-5.06 107.18,-5.35 107.68,-5.49 108.19,-5.63 108.72,-5.60 109.24,-5.58 109.73,-5.38 110.22,-5.19 110.62,-4.84 111.03,-4.50 111.30,-4.05 111.57,-3.60 111.68,-3.09 111.80,-2.57 111.74,-2.05 111.68,-1.52 111.46,-1.04 111.24,-0.57 110.88,-0.18 110.51,0.19 110.05,0.43 109.58,0.68 109.06,0.77 108.54,0.85 108.54,0.85 108.54,0.85 106.37,0.83 104.20,0.80 102.98,0.74 101.76,0.69 100.30,0.62 98.83,0.55 97.28,0.50 95.72,0.45 94.45,0.47 93.18,0.50 91.83,0.55 90.48,0.60 89.42,0.64 88.36,0.69 87.01,0.84 85.66,0.99 84.11,1.32 82.57,1.65 81.38,1.75 80.20,1.84 78.77,2.12 77.34,2.40 76.31,2.76 75.27,3.12 73.79,3.21 72.32,3.29 71.09,3.56 69.85,3.83 68.35,3.80 66.85,3.76 65.33,3.71 63.81,3.66 62.67,3.59 61.53,3.52 60.12,3.43 58.72,3.33 57.33,3.31 55.93,3.30 54.26,3.30 52.59,3.31 50.83,3.27 49.07,3.23 47.53,3.11 45.98,2.99 43.58,3.01 41.18,3.03 39.77,3.01 38.35,3.00 36.07,2.62 33.79,2.23 32.51,2.16 31.22,2.08 30.01,2.01 28.80,1.95 27.54,1.86 26.28,1.78 25.12,1.76 23.96,1.73 22.32,1.78 20.68,1.84 19.11,1.75 17.55,1.67 15.43,1.63 13.30,1.59 11.98,1.64 10.67,1.70 8.88,1.95 7.08,2.20 5.38,2.23 3.68,2.25 1.84,2.32 0,2.38 -0.28,2.35 -0.57,2.31 -0.84,2.21 -1.10,2.11 -1.34,1.94 -1.58,1.78 -1.77,1.57 -1.96,1.35 -2.09,1.10 -2.23,0.84 -2.30,0.56 -2.36,0.28 -2.36,-0.00 -2.36,-0.28 -2.30,-0.56 -2.23,-0.84 -2.09,-1.10 -1.96,-1.35 -1.77,-1.57 -1.58,-1.78 -1.34,-1.94 -1.10,-2.11 -0.83,-2.21 -0.57,-2.31 -0.28,-2.35 0.00,-2.38 0.00,-2.38 L 0,-2.38 Z"/></g><g transform="translate(161.20001220703125 173.20001220703125) rotate(0 1.20001220703125 -23.20001220703125)" stroke="none"><path fill="#000000" d="M -2.64,0 Q -2.64,0 -2.63,-1.38 -2.62,-2.76 -2.69,-4.61 -2.75,-6.46 -2.81,-7.98 -2.87,-9.49 -2.93,-10.65 -2.98,-11.81 -3.01,-13.65 -3.03,-15.50 -3.06,-17.15 -3.09,-18.79 -3.12,-20.17 -3.15,-21.55 -3.18,-22.68 -3.21,-23.82 -3.24,-25.66 -3.27,-27.49 -3.27,-29.04 -3.28,-30.60 -3.28,-32.28 -3.28,-33.97 -3.28,-35.12 -3.28,-36.27 -2.89,-37.40 -2.50,-38.53 -2.17,-39.56 -1.85,-40.59 -1.86,-42.00 -1.87,-43.42 -1.42,-45.35 -0.97,-47.28 -0.71,-47.78 -0.45,-48.28 -0.05,-48.67 0.34,-49.06 0.85,-49.31 1.36,-49.55 1.92,-49.62 2.48,-49.68 3.03,-49.57 3.58,-49.46 4.07,-49.17 4.56,-48.89 4.93,-48.46 5.30,-48.04 5.51,-47.52 5.73,-46.99 5.76,-46.43 5.80,-45.87 5.66,-45.33 5.51,-44.78 5.20,-44.31 4.89,-43.84 4.45,-43.49 4.00,-43.15 3.47,-42.96 2.94,-42.78 2.37,-42.77 1.81,-42.76 1.28,-42.94 0.74,-43.11 0.29,-43.44 -0.16,-43.78 -0.48,-44.24 -0.80,-44.71 -0.96,-45.25 -1.11,-45.79 -1.09,-46.35 -1.07,-46.91 -0.86,-47.44 -0.66,-47.97 -0.30,-48.40 0.05,-48.83 0.53,-49.13 1.01,-49.42 1.56,-49.55 2.10,-49.68 2.66,-49.63 3.23,-49.57 3.74,-49.34 4.25,-49.11 4.67,-48.73 5.08,-48.35 5.35,-47.85 5.62,-47.36 5.72,-46.80 5.82,-46.25 5.73,-45.69 5.65,-45.13 5.65,-45.13 5.65,-45.13 5.35,-43.85 5.04,-42.56 4.96,-41.12 4.88,-39.69 4.49,-38.21 4.11,-36.73 3.69,-35.35 3.28,-33.97 3.28,-32.28 3.28,-30.60 3.27,-29.04 3.27,-27.49 3.24,-25.66 3.21,-23.82 3.18,-22.68 3.15,-21.55 3.12,-20.17 3.09,-18.79 3.06,-17.15 3.03,-15.50 3.01,-13.65 2.98,-11.81 2.93,-10.65 2.87,-9.49 2.81,-7.98 2.75,-6.46 2.69,-4.61 2.62,-2.76 2.63,-1.38 2.64,0 2.60,0.31 2.56,0.63 2.45,0.93 2.34,1.22 2.16,1.49 1.97,1.75 1.74,1.96 1.50,2.17 1.21,2.32 0.93,2.47 0.62,2.54 0.31,2.62 -0.00,2.62 -0.31,2.62 -0.62,2.54 -0.93,2.47 -1.22,2.32 -1.50,2.17 -1.74,1.96 -1.97,1.75 -2.16,1.49 -2.34,1.22 -2.45,0.93 -2.56,0.63 -2.60,0.31 -2.64,-0.00 -2.64,-0.00 L -2.64,0 Z"/></g><g transform="translate(186.00006103515625 118.79998779296875) rotate(0 -47.20001220703125 13.600006103515625)" stroke="none"><path fill="#000000" d="M 0.43,2.61 Q 0.43,2.61 -0.94,2.83 -2.32,3.05 -3.83,3.28 -5.34,3.51 -7.09,4.28 -8.83,5.06 -10.30,5.24 -11.77,5.42 -13.47,6.15 -15.18,6.88 -16.92,7.09 -18.66,7.30 -19.94,7.59 -21.23,7.87 -23.04,8.33 -24.85,8.79 -25.99,9.46 -27.13,10.13 -28.54,10.53 -29.96,10.94 -31.28,11.43 -32.60,11.92 -33.55,12.75 -34.51,13.58 -35.77,14.15 -37.03,14.71 -37.98,15.24 -38.94,15.78 -40.12,16.62 -41.31,17.45 -42.53,18.17 -43.74,18.89 -44.99,19.49 -46.24,20.09 -47.39,20.51 -48.53,20.92 -49.70,21.30 -50.87,21.68 -53.00,22.57 -55.13,23.46 -57.39,23.88 -59.65,24.31 -61.70,24.61 -63.75,24.92 -65.65,25.07 -67.54,25.22 -69.27,25.64 -71.01,26.06 -72.36,26.36 -73.72,26.66 -75.32,27.23 -76.92,27.80 -78.05,28.00 -79.19,28.19 -80.40,28.29 -81.62,28.38 -82.92,28.77 -84.23,29.15 -85.92,29.70 -87.62,30.25 -89.08,30.34 -90.55,30.43 -92.35,30.45 -94.14,30.46 -94.66,30.37 -95.18,30.29 -95.65,30.04 -96.12,29.79 -96.48,29.41 -96.84,29.03 -97.07,28.55 -97.29,28.07 -97.35,27.54 -97.40,27.02 -97.29,26.50 -97.18,25.99 -96.90,25.53 -96.63,25.08 -96.23,24.74 -95.83,24.40 -95.34,24.20 -94.85,24.01 -94.32,23.98 -93.79,23.95 -93.28,24.09 -92.77,24.23 -92.34,24.53 -91.90,24.82 -91.58,25.25 -91.26,25.67 -91.09,26.17 -90.92,26.67 -90.92,27.19 -90.92,27.72 -91.09,28.22 -91.26,28.72 -91.58,29.14 -91.90,29.56 -92.34,29.86 -92.77,30.16 -93.28,30.30 -93.79,30.44 -94.32,30.41 -94.84,30.38 -95.34,30.19 -95.83,29.99 -96.23,29.65 -96.63,29.31 -96.90,28.86 -97.18,28.40 -97.29,27.89 -97.40,27.37 -97.35,26.85 -97.29,26.32 -97.07,25.84 -96.85,25.36 -96.48,24.98 -96.12,24.60 -95.65,24.35 -95.19,24.10 -94.66,24.02 -94.14,23.93 -94.14,23.93 -94.14,23.93 -92.38,23.94 -90.61,23.94 -89.36,23.97 -88.11,23.99 -86.86,23.73 -85.62,23.46 -83.65,23.13 -81.67,22.80 -80.58,22.86 -79.48,22.92 -78.17,22.90 -76.85,22.88 -75.69,22.57 -74.52,22.26 -73.35,22.10 -72.17,21.94 -70.11,21.27 -68.05,20.61 -66.43,20.39 -64.81,20.17 -62.91,19.59 -61.01,19.01 -59.39,18.45 -57.77,17.88 -56.42,17.16 -55.07,16.44 -54.05,16.00 -53.02,15.55 -51.10,14.80 -49.18,14.04 -47.61,13.40 -46.05,12.76 -44.93,12.01 -43.82,11.27 -42.39,10.28 -40.96,9.30 -39.83,8.96 -38.69,8.62 -37.08,7.42 -35.47,6.22 -34.22,5.96 -32.97,5.70 -31.41,5.22 -29.86,4.74 -28.17,3.94 -26.47,3.13 -24.57,2.70 -22.66,2.27 -21.18,1.85 -19.70,1.44 -18.16,1.06 -16.63,0.69 -15.53,0.38 -14.44,0.07 -12.89,-0.33 -11.33,-0.73 -10.27,-1.07 -9.21,-1.40 -7.48,-1.71 -5.74,-2.03 -4.46,-2.08 -3.19,-2.13 -1.81,-2.37 -0.43,-2.61 -0.11,-2.63 0.20,-2.64 0.51,-2.58 0.82,-2.51 1.11,-2.38 1.40,-2.24 1.65,-2.04 1.90,-1.84 2.09,-1.58 2.29,-1.33 2.41,-1.04 2.54,-0.74 2.59,-0.43 2.64,-0.11 2.62,0.20 2.60,0.52 2.50,0.82 2.40,1.12 2.23,1.39 2.06,1.66 1.83,1.89 1.60,2.11 1.32,2.27 1.04,2.43 0.74,2.52 0.43,2.61 0.43,2.61 L 0.43,2.61 Z"/></g><g transform="translate(120.4000244140625 142) rotate(0 0 22.399993896484375)" stroke="none"><path fill="#000000" d="M 2.67,0 Q 2.67,0 2.70,0.92 2.74,1.84 2.79,3.41 2.85,4.98 2.90,6.45 2.96,7.91 3.00,9.39 3.04,10.87 3.10,12.54 3.16,14.22 3.19,15.41 3.22,16.59 3.25,17.79 3.27,18.99 3.28,20.52 3.29,22.04 3.29,23.53 3.30,25.02 3.28,26.93 3.26,28.84 3.27,30.36 3.27,31.88 3.29,33.37 3.30,34.86 3.33,36.31 3.37,37.76 3.38,38.91 3.40,40.05 3.41,42.27 3.43,44.48 3.34,45.03 3.25,45.58 2.99,46.07 2.73,46.56 2.33,46.94 1.92,47.33 1.42,47.56 0.91,47.79 0.36,47.85 -0.18,47.91 -0.72,47.79 -1.27,47.67 -1.74,47.39 -2.22,47.10 -2.58,46.68 -2.94,46.25 -3.15,45.74 -3.35,45.22 -3.38,44.66 -3.41,44.11 -3.26,43.57 -3.11,43.04 -2.80,42.58 -2.49,42.12 -2.05,41.78 -1.60,41.44 -1.08,41.27 -0.55,41.09 0.00,41.09 0.55,41.09 1.08,41.27 1.61,41.44 2.05,41.78 2.49,42.12 2.80,42.58 3.11,43.04 3.26,43.57 3.41,44.11 3.38,44.66 3.35,45.22 3.15,45.74 2.94,46.25 2.58,46.68 2.22,47.10 1.74,47.39 1.27,47.67 0.72,47.79 0.18,47.91 -0.36,47.85 -0.92,47.79 -1.42,47.56 -1.92,47.32 -2.33,46.94 -2.73,46.56 -2.99,46.07 -3.25,45.58 -3.34,45.03 -3.43,44.48 -3.43,44.48 -3.43,44.48 -3.41,42.27 -3.40,40.05 -3.38,38.91 -3.37,37.76 -3.33,36.31 -3.30,34.86 -3.29,33.37 -3.27,31.88 -3.27,30.36 -3.26,28.84 -3.28,26.93 -3.30,25.02 -3.29,23.53 -3.29,22.04 -3.28,20.52 -3.27,18.99 -3.25,17.79 -3.22,16.59 -3.19,15.41 -3.16,14.22 -3.10,12.54 -3.04,10.87 -3.00,9.39 -2.96,7.91 -2.90,6.45 -2.85,4.98 -2.79,3.41 -2.74,1.84 -2.70,0.92 -2.67,0 -2.63,-0.32 -2.59,-0.64 -2.48,-0.94 -2.37,-1.24 -2.18,-1.50 -2.00,-1.77 -1.76,-1.98 -1.52,-2.20 -1.23,-2.35 -0.94,-2.50 -0.63,-2.58 -0.32,-2.65 0.00,-2.65 0.32,-2.65 0.63,-2.58 0.94,-2.50 1.23,-2.35 1.52,-2.20 1.76,-1.98 2.00,-1.77 2.18,-1.50 2.37,-1.24 2.48,-0.94 2.59,-0.64 2.63,-0.32 2.67,0.00 2.67,0.00 L 2.67,0 Z"/></g><g transform="translate(10 243.60000610351562) rotate(0 120.00003051757812 -3.20001220703125)" stroke="none"><path fill="#000000" d="M 0,-1.56 Q 0,-1.56 2.53,-1.52 5.06,-1.49 8.43,-1.46 11.81,-1.44 15.77,-1.42 19.73,-1.40 23.49,-1.39 27.24,-1.38 30.68,-1.37 34.12,-1.36 36.50,-1.35 38.88,-1.34 41.04,-1.34 43.20,-1.33 45.73,-1.33 48.26,-1.33 50.71,-1.32 53.17,-1.32 56.51,-1.32 59.85,-1.32 64.49,-1.32 69.13,-1.32 74.56,-1.31 79.98,-1.31 84.12,-1.31 88.27,-1.31 94.65,-1.08 101.04,-0.85 107.46,-0.29 113.87,0.26 117.49,0.50 121.11,0.73 123.33,0.83 125.55,0.93 127.18,0.88 128.81,0.83 130.19,0.75 131.57,0.67 133.29,0.50 135.01,0.33 137.15,0.43 139.30,0.52 140.79,0.50 142.28,0.48 143.54,0.42 144.80,0.35 146.24,0.30 147.68,0.25 149.38,0.34 151.08,0.43 152.72,0.49 154.37,0.55 155.75,0.56 157.14,0.57 158.88,0.64 160.62,0.71 162.74,0.86 164.86,1.01 166.91,1.10 168.96,1.20 171.36,1.06 173.76,0.93 176.76,0.23 179.77,-0.46 181.60,-0.82 183.44,-1.19 185.20,-1.38 186.96,-1.57 188.76,-1.85 190.56,-2.13 191.97,-2.52 193.37,-2.91 194.79,-3.15 196.21,-3.39 197.53,-3.52 198.84,-3.65 200.16,-3.81 201.49,-3.97 203.08,-4.40 204.67,-4.82 206.60,-5.27 208.53,-5.72 210.05,-5.94 211.58,-6.15 213.41,-6.40 215.24,-6.65 216.91,-6.98 218.58,-7.30 220.24,-7.82 221.90,-8.35 223.50,-8.83 225.10,-9.32 226.15,-9.70 227.19,-10.07 229.18,-10.41 231.17,-10.74 232.33,-10.96 233.49,-11.17 235.94,-11.60 238.39,-12.04 238.84,-12.18 239.29,-12.32 239.76,-12.31 240.22,-12.30 240.67,-12.14 241.11,-11.98 241.48,-11.69 241.84,-11.40 242.10,-11.00 242.36,-10.61 242.47,-10.16 242.59,-9.70 242.55,-9.23 242.52,-8.77 242.34,-8.33 242.15,-7.90 241.84,-7.55 241.53,-7.20 241.13,-6.96 240.72,-6.73 240.26,-6.64 239.80,-6.55 239.33,-6.61 238.87,-6.67 238.44,-6.87 238.02,-7.08 237.69,-7.41 237.35,-7.74 237.14,-8.15 236.93,-8.57 236.86,-9.04 236.80,-9.50 236.88,-9.96 236.97,-10.43 237.20,-10.84 237.42,-11.25 237.77,-11.56 238.12,-11.88 238.55,-12.07 238.98,-12.26 239.45,-12.30 239.91,-12.34 240.37,-12.23 240.83,-12.12 241.22,-11.87 241.62,-11.62 241.92,-11.25 242.21,-10.89 242.38,-10.45 242.54,-10.01 242.56,-9.54 242.58,-9.07 242.44,-8.62 242.31,-8.17 242.04,-7.79 241.76,-7.41 241.39,-7.13 241.01,-6.85 241.01,-6.85 241.01,-6.86 237.78,-6.26 234.55,-5.66 233.05,-5.36 231.54,-5.06 230.24,-4.97 228.94,-4.88 227.91,-4.56 226.89,-4.23 225.21,-3.89 223.54,-3.56 221.56,-3.17 219.59,-2.77 217.86,-2.34 216.14,-1.91 214.31,-1.46 212.47,-1.02 209.98,-0.63 207.48,-0.24 205.62,0.03 203.76,0.32 202.71,0.56 201.66,0.81 200.36,0.72 199.06,0.64 197.86,0.63 196.67,0.63 195.46,0.70 194.24,0.76 192.68,1.07 191.11,1.38 189.19,1.69 187.26,2.00 185.67,2.09 184.07,2.18 182.33,2.48 180.59,2.79 177.34,3.66 174.10,4.54 171.53,4.87 168.96,5.19 166.91,5.29 164.86,5.38 162.74,5.53 160.62,5.68 158.88,5.75 157.14,5.82 155.75,5.83 154.37,5.83 152.72,5.90 151.08,5.96 148.62,6.03 146.17,6.09 144.92,6.02 143.67,5.95 142.16,5.84 140.65,5.73 139.37,5.46 138.08,5.19 136.53,4.82 134.99,4.45 133.25,4.26 131.52,4.06 130.13,3.95 128.73,3.83 127.08,3.69 125.43,3.56 123.19,3.46 120.94,3.36 117.29,3.12 113.64,2.88 107.29,2.33 100.94,1.77 94.61,1.54 88.27,1.31 84.12,1.31 79.98,1.31 74.56,1.31 69.13,1.32 64.49,1.32 59.85,1.32 56.51,1.32 53.17,1.32 50.71,1.32 48.26,1.33 45.73,1.33 43.20,1.33 41.04,1.34 38.88,1.34 36.50,1.35 34.12,1.36 30.68,1.37 27.24,1.38 23.49,1.39 19.73,1.40 15.77,1.42 11.81,1.44 8.43,1.46 5.06,1.49 2.53,1.52 0,1.56 -0.18,1.53 -0.37,1.51 -0.54,1.45 -0.72,1.38 -0.88,1.27 -1.03,1.16 -1.16,1.02 -1.28,0.88 -1.37,0.72 -1.46,0.55 -1.50,0.37 -1.55,0.18 -1.55,-0.00 -1.55,-0.18 -1.50,-0.37 -1.46,-0.55 -1.37,-0.72 -1.28,-0.88 -1.16,-1.02 -1.03,-1.16 -0.88,-1.27 -0.72,-1.38 -0.54,-1.45 -0.37,-1.51 -0.18,-1.53 0.00,-1.56 0.00,-1.56 L 0,-1.56 Z"/></g><g transform="translate(58 246) rotate(0 -0.79998779296875 16.800003051757812)" stroke="none"><path fill="#000000" d="M 2.25,0 Q 2.25,0 2.13,2.99 2.00,5.98 1.67,8.48 1.35,10.99 1.23,12.90 1.11,14.80 1.09,16.53 1.07,18.26 0.87,19.83 0.67,21.41 0.64,22.62 0.61,23.84 0.63,25.04 0.64,26.24 0.74,27.98 0.83,29.72 0.85,31.52 0.87,33.32 0.80,33.71 0.74,34.11 0.55,34.46 0.36,34.81 0.07,35.09 -0.21,35.36 -0.57,35.53 -0.94,35.70 -1.33,35.74 -1.73,35.78 -2.12,35.70 -2.51,35.61 -2.86,35.40 -3.20,35.20 -3.46,34.89 -3.72,34.59 -3.86,34.21 -4.01,33.84 -4.03,33.44 -4.05,33.04 -3.95,32.66 -3.84,32.27 -3.61,31.94 -3.39,31.61 -3.07,31.37 -2.75,31.13 -2.37,31.00 -1.99,30.87 -1.59,30.87 -1.19,30.87 -0.81,31.00 -0.43,31.13 -0.11,31.37 0.19,31.62 0.42,31.95 0.64,32.28 0.75,32.66 0.85,33.05 0.83,33.45 0.81,33.85 0.66,34.22 0.51,34.59 0.25,34.90 -0.00,35.20 -0.34,35.41 -0.68,35.61 -1.07,35.70 -1.46,35.78 -1.86,35.74 -2.26,35.70 -2.62,35.53 -2.99,35.36 -3.28,35.08 -3.57,34.81 -3.75,34.45 -3.94,34.10 -4.00,33.71 -4.07,33.31 -4.07,33.31 -4.07,33.31 -4.04,31.50 -4.01,29.68 -3.86,27.88 -3.71,26.08 -3.61,24.79 -3.50,23.51 -3.32,22.13 -3.14,20.75 -2.84,19.46 -2.55,18.16 -2.48,16.40 -2.42,14.63 -2.34,12.63 -2.27,10.64 -2.13,8.31 -2.00,5.97 -2.13,2.98 -2.25,0 -2.22,-0.26 -2.18,-0.53 -2.09,-0.79 -1.99,-1.04 -1.84,-1.27 -1.68,-1.49 -1.48,-1.67 -1.28,-1.85 -1.03,-1.98 -0.79,-2.10 -0.53,-2.17 -0.27,-2.23 0.00,-2.23 0.27,-2.23 0.53,-2.17 0.79,-2.10 1.03,-1.98 1.28,-1.85 1.48,-1.67 1.68,-1.49 1.84,-1.27 1.99,-1.04 2.09,-0.79 2.18,-0.53 2.22,-0.26 2.25,0.00 2.25,0.00 L 2.25,0 Z"/></g><g transform="translate(102.800048828125 244.39999389648438) rotate(0 2 20.800003051757812)" stroke="none"><path fill="#000000" d="M 2.43,-0.97 Q 2.43,-0.97 2.90,0.17 3.37,1.31 3.79,2.81 4.22,4.31 4.54,5.32 4.86,6.34 5.84,7.63 6.83,8.92 7.00,10.08 7.17,11.24 7.22,12.98 7.26,14.72 7.28,16.13 7.29,17.53 7.26,19.56 7.24,21.59 7.24,23.26 7.24,24.94 7.19,26.28 7.14,27.62 7.14,29.37 7.13,31.12 6.80,32.23 6.46,33.33 6.49,34.39 6.52,35.46 6.55,36.63 6.58,37.81 6.20,39.79 5.82,41.76 5.67,42.30 5.52,42.83 5.20,43.28 4.89,43.74 4.45,44.07 4.00,44.40 3.48,44.58 2.95,44.75 2.40,44.75 1.84,44.74 1.32,44.56 0.80,44.38 0.36,44.04 -0.07,43.71 -0.38,43.24 -0.68,42.78 -0.83,42.25 -0.97,41.72 -0.94,41.16 -0.91,40.61 -0.70,40.10 -0.49,39.58 -0.13,39.17 0.22,38.75 0.70,38.46 1.18,38.18 1.72,38.07 2.26,37.95 2.81,38.02 3.36,38.08 3.86,38.32 4.36,38.55 4.76,38.94 5.16,39.32 5.42,39.81 5.67,40.30 5.76,40.85 5.84,41.39 5.75,41.94 5.66,42.49 5.39,42.97 5.13,43.46 4.73,43.84 4.32,44.22 3.82,44.44 3.31,44.67 2.76,44.73 2.21,44.79 1.67,44.66 1.13,44.54 0.66,44.25 0.19,43.96 -0.16,43.54 -0.51,43.11 -0.71,42.60 -0.92,42.08 -0.94,41.53 -0.97,40.97 -0.97,40.98 -0.97,40.98 -0.59,39.79 -0.20,38.60 -0.17,37.39 -0.13,36.17 -0.06,34.81 0.01,33.45 0.43,32.17 0.86,30.90 0.85,29.26 0.85,27.62 0.80,26.28 0.75,24.94 0.75,23.26 0.75,21.59 0.73,19.56 0.70,17.54 0.71,16.13 0.72,14.73 0.73,13.50 0.74,12.28 0.81,11.11 0.89,9.93 0.20,8.53 -0.48,7.13 -1.01,5.20 -1.53,3.28 -1.98,2.12 -2.43,0.97 -2.51,0.66 -2.60,0.36 -2.60,0.04 -2.61,-0.26 -2.54,-0.57 -2.47,-0.88 -2.32,-1.16 -2.18,-1.45 -1.98,-1.69 -1.77,-1.93 -1.51,-2.11 -1.26,-2.30 -0.96,-2.42 -0.67,-2.53 -0.36,-2.58 -0.04,-2.62 0.26,-2.59 0.58,-2.56 0.88,-2.45 1.17,-2.34 1.44,-2.17 1.70,-1.99 1.91,-1.76 2.13,-1.52 2.28,-1.25 2.43,-0.97 2.43,-0.97 L 2.43,-0.97 Z"/></g><g transform="translate(158 247.60000610351562) rotate(0 0 18.800003051757812)" stroke="none"><path fill="#000000" d="M 2.46,0 Q 2.46,0 2.31,3.44 2.16,6.89 2.10,8.82 2.04,10.75 2.18,12.47 2.32,14.20 2.46,15.81 2.61,17.43 2.69,18.61 2.77,19.80 2.83,21.09 2.89,22.39 2.97,23.92 3.05,25.45 3.09,26.72 3.12,27.99 3.16,29.21 3.19,30.42 3.22,31.53 3.25,32.63 3.27,34.99 3.29,37.34 3.21,37.87 3.12,38.40 2.87,38.87 2.62,39.34 2.23,39.71 1.85,40.07 1.36,40.30 0.88,40.52 0.35,40.58 -0.17,40.64 -0.70,40.52 -1.22,40.41 -1.67,40.13 -2.13,39.86 -2.48,39.45 -2.82,39.04 -3.02,38.55 -3.22,38.05 -3.25,37.52 -3.28,36.98 -3.13,36.47 -2.99,35.96 -2.69,35.51 -2.39,35.07 -1.97,34.75 -1.54,34.43 -1.03,34.26 -0.53,34.09 0.00,34.09 0.53,34.09 1.04,34.26 1.54,34.43 1.97,34.75 2.39,35.07 2.69,35.51 2.99,35.96 3.13,36.47 3.28,36.99 3.25,37.52 3.22,38.05 3.02,38.55 2.82,39.04 2.48,39.45 2.13,39.86 1.67,40.13 1.22,40.41 0.69,40.52 0.17,40.64 -0.35,40.58 -0.88,40.52 -1.36,40.30 -1.85,40.07 -2.24,39.71 -2.62,39.34 -2.87,38.87 -3.12,38.39 -3.21,37.87 -3.29,37.34 -3.29,37.34 -3.29,37.34 -3.27,34.99 -3.25,32.63 -3.22,31.53 -3.19,30.42 -3.16,29.21 -3.12,27.99 -3.09,26.72 -3.05,25.45 -2.97,23.92 -2.89,22.39 -2.83,21.09 -2.77,19.80 -2.69,18.61 -2.61,17.43 -2.46,15.81 -2.32,14.20 -2.18,12.47 -2.04,10.75 -2.10,8.82 -2.16,6.89 -2.31,3.44 -2.46,0 -2.43,-0.29 -2.39,-0.59 -2.28,-0.86 -2.18,-1.14 -2.01,-1.39 -1.84,-1.63 -1.62,-1.83 -1.40,-2.02 -1.13,-2.16 -0.87,-2.30 -0.58,-2.37 -0.29,-2.44 0.00,-2.44 0.29,-2.44 0.58,-2.37 0.87,-2.30 1.13,-2.16 1.40,-2.02 1.62,-1.83 1.84,-1.63 2.01,-1.39 2.18,-1.14 2.28,-0.86 2.39,-0.58 2.43,-0.29 2.46,0.00 2.46,0.00 L 2.46,0 Z"/></g><g transform="translate(203.60003662109375 246.79998779296875) rotate(0 0.4000244140625 18.800003051757812)" stroke="none"><path fill="#000000" d="M 2.63,0 Q 2.63,0 2.67,0.92 2.70,1.84 2.77,2.95 2.85,4.06 2.92,5.33 3.00,6.59 3.07,7.80 3.13,9.00 3.17,10.13 3.20,11.26 3.25,12.53 3.29,13.79 3.31,15.46 3.33,17.12 3.31,18.96 3.28,20.80 3.68,22.31 4.08,23.82 4.12,25.11 4.17,26.40 4.19,27.51 4.21,28.63 4.24,30.00 4.26,31.37 4.28,34.32 4.29,37.27 4.20,37.83 4.11,38.39 3.85,38.89 3.58,39.39 3.17,39.78 2.76,40.17 2.24,40.41 1.73,40.64 1.17,40.70 0.61,40.77 0.05,40.64 -0.49,40.52 -0.98,40.23 -1.46,39.94 -1.83,39.51 -2.19,39.07 -2.40,38.55 -2.61,38.02 -2.64,37.46 -2.67,36.89 -2.52,36.35 -2.37,35.80 -2.05,35.33 -1.74,34.86 -1.28,34.52 -0.83,34.18 -0.30,34.00 0.23,33.82 0.80,33.82 1.36,33.82 1.90,34.00 2.43,34.18 2.89,34.52 3.34,34.86 3.65,35.33 3.97,35.80 4.12,36.35 4.27,36.89 4.24,37.46 4.21,38.02 4.00,38.55 3.79,39.08 3.43,39.51 3.06,39.94 2.57,40.23 2.09,40.52 1.54,40.64 0.98,40.77 0.42,40.70 -0.13,40.64 -0.65,40.40 -1.16,40.17 -1.57,39.78 -1.98,39.39 -2.25,38.89 -2.51,38.39 -2.60,37.83 -2.69,37.27 -2.69,37.27 -2.69,37.27 -2.68,34.32 -2.66,31.38 -2.64,30.01 -2.61,28.64 -2.60,27.08 -2.59,25.52 -2.63,24.40 -2.67,23.27 -2.97,22.09 -3.28,20.91 -3.31,19.02 -3.33,17.12 -3.31,15.46 -3.29,13.79 -3.25,12.53 -3.20,11.26 -3.17,10.13 -3.13,9.00 -3.07,7.80 -3.00,6.59 -2.92,5.33 -2.85,4.06 -2.77,2.95 -2.70,1.84 -2.67,0.92 -2.63,0 -2.60,-0.31 -2.56,-0.63 -2.44,-0.92 -2.33,-1.22 -2.15,-1.48 -1.97,-1.74 -1.73,-1.96 -1.49,-2.17 -1.21,-2.31 -0.93,-2.46 -0.62,-2.54 -0.31,-2.61 0.00,-2.61 0.31,-2.61 0.62,-2.54 0.93,-2.46 1.21,-2.31 1.49,-2.17 1.73,-1.96 1.97,-1.74 2.15,-1.48 2.33,-1.22 2.44,-0.92 2.56,-0.63 2.60,-0.31 2.63,0.00 2.63,0.00 L 2.63,0 Z"/></g><g transform="translate(30 243.60000610351562) rotate(0 -0.399993896484375 22.800003051757812)" stroke="none"><path fill="#000000" d="M 2.12,0 Q 2.12,0 2.01,2.98 1.90,5.97 1.82,8.63 1.74,11.28 1.79,12.86 1.85,14.45 1.77,17.19 1.70,19.94 1.66,22.02 1.61,24.11 1.68,25.69 1.75,27.26 1.84,28.39 1.93,29.52 2.08,30.77 2.22,32.01 2.33,33.35 2.44,34.69 2.11,36.55 1.77,38.41 1.94,39.72 2.11,41.03 2.14,43.19 2.18,45.34 2.10,45.82 2.02,46.30 1.79,46.72 1.57,47.15 1.22,47.48 0.87,47.81 0.43,48.01 -0.00,48.22 -0.48,48.27 -0.96,48.32 -1.43,48.22 -1.90,48.11 -2.31,47.86 -2.73,47.62 -3.04,47.25 -3.35,46.88 -3.53,46.43 -3.71,45.98 -3.73,45.50 -3.76,45.02 -3.63,44.56 -3.50,44.09 -3.23,43.69 -2.96,43.29 -2.57,43.00 -2.19,42.71 -1.73,42.55 -1.28,42.40 -0.79,42.40 -0.31,42.40 0.14,42.56 0.59,42.71 0.98,43.00 1.36,43.29 1.63,43.69 1.90,44.09 2.03,44.56 2.16,45.02 2.13,45.50 2.11,45.99 1.93,46.43 1.75,46.88 1.44,47.25 1.12,47.62 0.71,47.87 0.30,48.11 -0.16,48.22 -0.64,48.32 -1.11,48.27 -1.59,48.22 -2.03,48.01 -2.47,47.81 -2.82,47.48 -3.17,47.15 -3.40,46.72 -3.62,46.29 -3.70,45.82 -3.78,45.34 -3.78,45.34 -3.78,45.34 -3.69,42.69 -3.61,40.03 -3.47,38.95 -3.33,37.86 -2.88,36.28 -2.44,34.69 -2.33,33.35 -2.22,32.01 -2.08,30.77 -1.93,29.52 -1.84,28.39 -1.75,27.26 -1.68,25.69 -1.61,24.11 -1.66,22.02 -1.70,19.94 -1.77,17.19 -1.85,14.45 -1.79,12.86 -1.74,11.28 -1.82,8.63 -1.90,5.97 -2.01,2.98 -2.12,0 -2.09,-0.25 -2.06,-0.50 -1.97,-0.74 -1.87,-0.98 -1.73,-1.19 -1.58,-1.40 -1.39,-1.57 -1.20,-1.74 -0.97,-1.86 -0.75,-1.98 -0.50,-2.04 -0.25,-2.10 0.00,-2.10 0.25,-2.10 0.50,-2.04 0.75,-1.98 0.97,-1.86 1.20,-1.74 1.39,-1.57 1.58,-1.40 1.73,-1.19 1.87,-0.98 1.97,-0.74 2.06,-0.50 2.09,-0.25 2.12,0.00 2.12,0.00 L 2.12,0 Z"/></g><g transform="translate(238.79998779296875 238) rotate(0 0.4000244140625 24.399993896484375)" stroke="none"><path fill="#000000" d="M 2.64,0 Q 2.64,0 2.68,0.92 2.71,1.84 3.13,3.47 3.54,5.10 3.69,6.18 3.83,7.27 3.88,8.36 3.93,9.45 3.97,10.62 4.00,11.80 4.05,13.19 4.09,14.57 4.13,15.79 4.17,17.00 4.19,18.53 4.22,20.06 4.23,21.15 4.24,22.24 4.25,23.42 4.26,24.60 4.26,25.79 4.27,26.99 4.27,28.29 4.27,29.58 4.28,30.70 4.28,31.82 4.30,33.20 4.32,34.57 4.32,35.71 4.33,36.85 4.26,38.22 4.19,39.58 4.19,40.96 4.19,42.35 4.22,43.67 4.25,44.98 4.26,46.69 4.26,48.40 4.17,48.95 4.08,49.51 3.82,50.00 3.56,50.50 3.15,50.88 2.74,51.27 2.23,51.51 1.72,51.74 1.17,51.80 0.61,51.86 0.06,51.74 -0.48,51.62 -0.96,51.33 -1.44,51.04 -1.80,50.61 -2.17,50.19 -2.38,49.67 -2.58,49.14 -2.61,48.58 -2.64,48.02 -2.49,47.48 -2.34,46.94 -2.03,46.48 -1.71,46.01 -1.27,45.67 -0.82,45.33 -0.29,45.15 0.23,44.97 0.80,44.97 1.36,44.97 1.89,45.15 2.42,45.33 2.87,45.67 3.31,46.01 3.63,46.48 3.94,46.94 4.09,47.48 4.24,48.02 4.21,48.58 4.18,49.15 3.98,49.67 3.77,50.19 3.40,50.62 3.04,51.04 2.56,51.33 2.08,51.62 1.53,51.74 0.98,51.86 0.42,51.80 -0.12,51.74 -0.63,51.51 -1.14,51.27 -1.55,50.88 -1.96,50.50 -2.22,50.00 -2.48,49.51 -2.57,48.95 -2.66,48.40 -2.66,48.40 -2.66,48.40 -2.66,46.69 -2.65,44.98 -2.62,43.67 -2.59,42.35 -2.59,40.96 -2.59,39.58 -2.66,38.22 -2.73,36.85 -2.72,35.71 -2.72,34.57 -2.70,33.20 -2.68,31.82 -2.68,30.70 -2.67,29.58 -2.67,28.29 -2.67,26.99 -2.66,25.79 -2.66,24.60 -2.65,23.42 -2.64,22.24 -2.63,21.15 -2.62,20.06 -2.59,18.53 -2.57,17.00 -2.53,15.79 -2.49,14.57 -2.45,13.19 -2.40,11.80 -2.37,10.64 -2.34,9.48 -2.23,7.88 -2.13,6.27 -2.47,5.25 -2.82,4.22 -2.76,3.03 -2.71,1.84 -2.68,0.92 -2.64,0 -2.61,-0.31 -2.57,-0.63 -2.45,-0.93 -2.34,-1.23 -2.16,-1.49 -1.98,-1.75 -1.74,-1.96 -1.50,-2.17 -1.22,-2.32 -0.93,-2.47 -0.62,-2.55 -0.31,-2.62 0.00,-2.62 0.31,-2.62 0.62,-2.55 0.93,-2.47 1.22,-2.32 1.50,-2.17 1.74,-1.96 1.98,-1.75 2.16,-1.49 2.34,-1.23 2.45,-0.93 2.57,-0.63 2.61,-0.31 2.64,0.00 2.64,0.00 L 2.64,0 Z"/></g></svg>